Things We Lost in the Fire *2007*[BluRay][1080p][ENG, POL]

General information:
Country: USA, UK 
Release: 26 September 2007 (San Sebastián Film Festival)
Genre: Drama 
Director: Susanne Bier
Screenplay: Allan Loeb
Original Music: Johan Söderqvist
Cinematography by: Tom Stern 
Duration: 1h 58mn
Language: English, Polish
Subtitles: English, Polish
Rating: 7.6/10 - 2241 votes
[img]http://img440.imageshack.us/img440/244/22470642.jpg[/img]

[img]http://img836.imageshack.us/img836/6493/beznazwy1sa.jpg[/img]

Cast:
Halle Berry  ...  Audrey Burke  
Benicio Del Toro  ...  Jerry Sunborne  
David Duchovny  ...  Brian Burke  
Alexis Llewellyn  ...  Harper Burke  
Micah Berry  ...  Dory Burke  
John Carroll Lynch  ...  Howard Glassman  
Alison Lohman  ...  Kelly  
Robin Weigert  ...  Brenda  
Omar Benson Miller  ...  Neal  
Paula Newsome  ...  Diane  
Sarah Dubrovsky  ...  Spring  
Maureen Thomas  ...  Grandma Ginnie Burke  
Patricia Harras  ...  Howard's Wife  
V.J. Foster  ...  Distressed Man (as VJ Foster)  
Caroline Field  ...  Teresa Haddock (as Carolyn Field)  

Plot:
A recent widow invites her husband's troubled best friend to live with her and her two children. As he gradually turns his life around, he helps the family cope and confront their loss. 

Specifications:
General
Format                           : Matroska
Overall bit rate                 : 9 006 Kbps

Video
Format                           : AVC
Format/Info                      : Advanced Video Codec
Format profile                   : High@L4.0
Format settings, CABAC           : Yes
Format settings, ReFrames        : 3 frames
Format settings, GOP             : M=4, N=29
Muxing mode                      : Container profile=Unknown@4.0
Codec ID                         : V_MPEG4/ISO/AVC
Bit rate                         : 7 928 Kbps
Width                            : 1 920 pixels
Height                           : 1 080 pixels
Display aspect ratio             : 16:9
Frame rate                       : 23.976 fps

Audio 1
Format                           : AC-3
Format/Info                      : Audio Coding 3
Mode extension                   : CM (complete main)
Codec ID                         : A_AC3
Bit rate mode                    : Constant
Bit rate                         : 640 Kbps
Channel(s)                       : 6 channels
Channel positions                : Front: L C R, Side: L R, LFE
Sampling rate                    : 48.0 KHz
Stream size                      : 541 MiB (7%)
Title                            : English

Audio 2
Format                           : AC-3
Format/Info                      : Audio Coding 3
Mode extension                   : CM (complete main)
Codec ID                         : A_AC3
Bit rate mode                    : Constant
Bit rate                         : 448 Kbps
Channel(s)                       : 6 channels
Channel positions                : Front: L C R, Side: L R, LFE
Sampling rate                    : 48.0 KHz
Stream size                      : 379 MiB (5%)
Title                            : Polish
Language                         : Polish

Text 1
Format                           : UTF-8
Codec ID                         : S_TEXT/UTF8
Codec ID/Info                    : UTF-8 Plain Text
Title                            : English

Text 2
Format                           : UTF-8
Codec ID                         : S_TEXT/UTF8
Codec ID/Info                    : UTF-8 Plain Text
Title                            : Polish
Language                         : Polish
